<?xml version="1.0" encoding="utf-8" ?>
<svg xmlns="http://www.w3.org/2000/svg" xmlns:xlink="http://www.w3.org/1999/xlink" width="1120" height="1120">
	<path fill="#272723" d="M891.568 477.658C889.686 476.782 888.579 476.43 887.386 474.647L887.667 473.451C889.209 472.917 889.58 473.019 891.206 473.322C892.65 474.351 893.117 475.194 893.831 476.744C893.109 477.062 892.339 477.495 891.568 477.658Z"/>
	<path fill="#272723" d="M199.127 509.756C200.73 508.807 201.603 508.362 203.486 508.429C204.675 509.322 204.557 509.528 204.897 511.004C204.457 511.879 203.918 512.766 203.65 513.707C201.288 514.512 198.351 514.554 195.863 514.848L199.127 509.756Z"/>
	<path fill="#272723" d="M206.195 520.67C209.163 520.387 212.007 520.544 214.954 520.403Q213.331 521.354 211.751 522.376L211.859 522.928C212.972 523.57 213.885 524.098 214.805 525.012C213.955 526.439 212.608 526.283 211.358 527.281C210.798 527.727 212.239 529.128 212.187 530.298C211.684 530.736 211.647 530.819 210.941 531.136C209.165 531.933 204.972 532.286 203.255 531.484C205.059 530.878 208.024 530.309 209.23 528.816C207.361 527.078 201.049 527.214 198.464 527.017C200.683 526.348 203.299 525.893 204.557 523.741C204.69 523.513 205.095 522.659 205.297 522.479C205.573 522.232 205.928 522.092 206.243 521.899L206.195 520.67Z"/>
	<path fill="#272723" d="M897.711 510.968C899.078 510.359 900.436 509.715 901.82 509.145C903.951 508.266 904.903 508.381 907.016 509.249C907.086 509.466 907.132 509.692 907.226 509.9C907.826 511.237 908.994 512.137 910.058 513.104L910.268 513.958C908.815 514.113 907.403 514.167 905.944 514.194L905.929 515.003L906.847 515.582C907.58 516.05 908.116 516.444 908.648 517.147L906.011 517.209L906.344 517.543L891.204 519.188C893.756 517.348 897.255 515.911 899.244 513.556L899.348 512.314L897.711 510.968Z"/>
	<path fill="#363231" d="M893.831 476.744C895.528 478.944 897.636 480.241 900.422 480.622C909.411 481.852 918.807 474.81 926.628 471.338C930.119 469.788 933.679 468.741 937.389 467.856C935.072 469.326 932.219 470.708 930.64 472.992C930.582 474.274 930.453 474.757 931.548 475.687C932.303 476.327 933.6 476.768 934.5 477.204L935.412 477.657C933.848 479.167 931.583 480.879 930.723 482.885C931.084 483.569 931.452 484.04 931.909 484.672C932.604 485.635 932.696 486.165 932.832 487.31C932.218 488.616 931.574 489.134 930.485 490.027C930.962 491.38 931.681 491.811 932.737 492.714L932.713 493.497C929.295 495.398 925.565 495.1 921.779 495.112Q926.151 497.351 930.44 499.744L924.093 504.128C926.945 506.374 929.778 508.304 932.921 510.12C928.886 509.058 923.865 508.317 920.342 506.082L919.891 505.297C920.678 504.471 921.453 504.057 922.462 503.537L922.094 502.928C920.642 503.032 919.687 503.434 918.475 502.548C918.821 501.539 919.032 501.18 919.664 500.371L919.369 499.605C917.647 495.067 916.655 490.15 916.269 485.316C911.821 492.461 909.812 500.119 909.255 508.517C908.213 509.273 908.209 509.151 907.016 509.249C904.903 508.381 903.951 508.266 901.82 509.145C900.436 509.715 899.078 510.359 897.711 510.968C895.371 510.473 893.275 510.591 890.911 510.716C893.959 507.942 896.955 505.19 899.722 502.132C897.163 502.649 893.71 503.767 891.138 503.545C890.177 503.462 889.841 503.398 889.281 502.612C890.427 500.353 894.264 498.362 896.332 496.822L896.434 495.874C893.512 495.565 890.502 495.852 887.57 495.973C889.931 493.818 892.365 491.959 894.97 490.111L887.108 488.073C888.239 486.939 889.811 485.639 890.59 484.239C891.124 483.278 891.057 483.223 890.697 482.154L888.606 481.409L888.573 480.576C889.493 479.497 890.517 478.605 891.568 477.658C892.339 477.495 893.109 477.062 893.831 476.744Z"/>
	<path fill="#363231" d="M949.414 459.493C954.33 460.08 957.208 461.557 960.848 464.868C968.226 471.58 974.322 479.8 980.73 487.415C987.728 495.732 995.216 503.961 1002.91 511.639C1009.78 518.488 1017.14 525.224 1024.73 531.271C1030.82 536.125 1037.87 540.458 1043.11 546.22C1031.19 544.622 998.1 534.634 986.719 529.587C988.214 528.765 989.883 528.061 990.969 526.709C990.483 525.017 989.477 524.46 988.19 523.293C988.369 522.745 988.232 523.023 988.754 522.415C988.899 522.246 989.048 522.081 989.195 521.914L989.049 520.729C987.87 519.664 986.568 518.775 985.276 517.855C983.875 519.159 981.66 521.857 979.758 522.1C979.176 520.941 979.102 520.935 979.382 519.683C980.602 518.115 981.815 517.36 983.531 516.365L984.194 515.987C982.201 515.111 981.216 517.042 979.335 516.27C979.229 514.347 979.188 512.375 978.953 510.465C978.586 507.47 977.233 506.646 974.98 504.886C974.476 502.295 974.202 499.021 971.907 497.445C967.507 500.869 968.113 511.269 966.189 516.335C966.086 516.607 965.975 516.876 965.868 517.146Q966.472 517.946 967.048 518.767L966.742 519.552C964.043 520.348 960.745 520.031 957.934 520.051C957.395 518.253 957.046 516.686 957.018 514.795C957 513.619 957.114 513.351 956.516 512.311C954.93 512.783 952.768 513.596 951.1 513.45C949.734 513.331 949.488 512.629 948.857 511.601C950.255 508.784 953.982 508.536 955.371 505.685L954.624 504.517C952.136 502.873 949.454 502.472 946.586 501.875Q948.856 500.489 951.097 499.057C952.475 498.161 953.64 497.531 953.985 495.868C951.845 494.079 948.496 493.934 945.807 493.488C948.692 490.979 951.715 488.596 953.911 485.432C951.459 485.664 948.539 486.178 946.129 485.479C945.233 485.219 945.533 485.335 945.087 484.386C946.482 481.808 949.005 479.94 950.789 477.578L951.149 477.094C949.385 476.236 946.561 475.195 945.303 473.68C944.311 472.486 944.407 471.906 944.523 470.481C945.498 469.244 946.473 468.448 947.753 467.529L948.235 467.188L948.15 466.392C945.678 465.122 942.775 464.847 940.061 464.36C943.057 462.492 946.233 461.016 949.414 459.493Z"/>
	<path fill="#363231" d="M76.7475 546.451C88.1568 533.907 101.404 523.216 113.01 510.768Q126.75 495.792 140.133 480.497C146.578 473.114 152.702 465.499 160.053 458.968C163.112 456.249 166.518 454.332 170.68 454.032C179.682 453.382 187.984 461.614 194.14 467.237C202.518 474.888 210.422 483.091 218.291 491.258C218.462 495.916 217.229 496.666 216.339 500.727C215.705 503.616 215.419 506.674 215.013 509.608C214.694 511.91 216.3 512.372 215.602 514.652C214.641 515.457 212.617 516.684 212.451 517.849L215.141 519.196C215.24 520.208 215.409 519.838 214.954 520.403C212.007 520.544 209.163 520.387 206.195 520.67C205.589 520.58 205.069 520.424 204.486 520.244C204.759 519.245 205.156 518.134 205.272 517.109C205.462 515.429 204.636 514.921 203.65 513.707C203.918 512.766 204.457 511.879 204.897 511.004C204.557 509.528 204.675 509.322 203.486 508.429C201.603 508.362 200.73 508.807 199.127 509.756L197.714 508.888C197.678 508.592 197.646 508.295 197.606 508C197.471 507.003 197.193 506.147 196.892 505.193C194.858 498.751 194.638 491.477 194.071 484.768C192.801 492.811 192.472 502.134 188.212 509.214C188.294 510.516 188.676 511.294 189.274 512.443L188.932 513.516C187.812 513.586 186.846 513.554 185.735 513.394L185.47 514.147C186.098 515.198 187.025 516.375 187.266 517.573C186.213 519.437 185.228 521.056 184.518 523.095C185.089 524.186 185.721 525.182 186.411 526.201L186.274 527.07C185.221 527.23 184.213 527.3 183.149 527.329C183.862 529.311 185.415 531.07 186.641 532.785C183.439 532.278 181.489 531.908 178.852 529.876C175.751 527.486 173.914 527.258 170.101 526.735C172.488 525.671 174.921 524.807 176.813 522.952L176.834 522.009C173.962 520.678 170.344 521.058 167.228 521.062C170.424 519.8 174.058 518.509 176.177 515.671L176.272 514.575C174.109 513.653 170.791 516.043 169.65 513.545C171.119 511.611 174.375 510.784 175.307 508.708C173.046 507.623 170.403 508.897 168.279 507.639C168.334 506.514 169.06 505.88 169.881 505.151C170.604 504.509 171.439 503.956 172.23 503.399C170.888 502.063 168.729 501.953 168.348 500.135C168.856 498.822 169.621 497.884 169.052 496.549L166.663 495.738L166.301 494.704C167.052 493.209 167.932 491.999 168.967 490.687C168.052 489.333 166.691 488.926 165.783 487.788C165.033 486.85 165.025 478.594 164.307 476.219C164.087 475.495 163.878 474.775 163.644 474.055C162.511 477.236 160.362 481.745 160.375 485.089L161.409 486.982C160.522 488.862 158.756 488.852 158.148 490.812L158.589 491.838C158.977 492.753 159.258 493.617 159.475 494.59C158.761 495.425 157.163 496.655 157.283 497.731C157.469 499.398 158.673 500.984 158.043 502.51L156.932 502.484C156.027 502.467 155.28 502.51 154.399 502.745C155.159 504.879 157.513 505.703 158.012 507.792C156.566 508.339 155.182 508.119 153.678 508.005L153.424 508.567C154.223 509.803 155.652 511.214 155.379 512.672Q153.817 513.039 152.249 513.384L152.092 514.097C153.089 515.239 155.584 517.346 155.569 518.78C153.362 519.022 150.986 518.066 148.873 517.471C151.697 520.632 154.281 523.11 157.89 525.398C154.389 525.053 151.008 524.857 147.49 524.932C149.712 526.531 151.984 528.092 154.165 529.745C147.593 530.985 142.122 532.411 135.324 532.082C138.043 530.778 140.744 529.467 143.555 528.37L137.884 526.877C137.153 523.514 136.662 515.187 134.365 513.07C133.38 513.946 133.703 513.412 133.375 514.576C132.716 516.921 129.1 523.611 129.669 525.158C130.81 526.155 131.576 526.521 131.971 528.009C130.421 529.48 127.109 527.667 126.381 529.593C127.542 531.749 129.333 533.335 131.047 535.053C129.407 534.657 126.764 533.617 125.174 534.282C125.139 534.548 125.122 534.818 125.067 535.081C124.667 536.983 123.271 538.02 121.672 538.937C112.307 544.303 87.4638 546.497 76.7475 546.451Z"/>
	<path fill="#E4350E" d="M322.979 552.596Q329.511 552.435 336.045 552.391C342.525 558.036 347.796 568.871 352.615 576.285C362.139 590.938 371.459 605.93 382.15 619.772C390.093 605.709 400.104 592.885 409.738 579.965C416.495 570.903 422.99 561.695 429.494 552.453C438.805 552.563 448.103 552.943 457.426 552.978C451.967 563.439 443.37 572.494 436.346 581.937C422.301 600.819 408.597 620.282 393.817 638.585C409.454 661.782 425.546 684.497 441.958 707.152C443.208 708.773 444.371 710.478 445.568 712.14C437.677 713.172 416.701 713.811 409.516 711.832C401.018 709.49 378.324 667.808 373.383 659.463C368.012 668.019 361.759 676.165 355.886 684.387C349.312 693.592 342.938 703.076 335.933 711.957C326.611 712.865 317.158 712.346 307.814 712.105Q336.593 675.028 363.269 636.411C359.373 630.672 355.966 624.558 352.274 618.679C347.063 610.38 341.562 602.219 336.115 594.076C327.045 580.516 316.611 567.62 309.326 552.986Q316.157 552.939 322.979 552.596ZM327.551 561.859C343.677 586.589 363.585 612.004 373.099 640.236C362.958 654.509 352.319 668.479 342.026 682.653C337.113 689.42 331.428 695.875 327.819 703.473L327.339 704.472C333.195 699.469 337.052 692.784 341.42 686.517Q350.459 673.709 359.668 661.023C363.979 655.062 368.347 648.367 373.58 643.183C375.073 645.22 376.61 647.234 377.968 649.365C389.055 667.21 400.494 684.98 411.097 703.112Q418.446 702.953 425.796 703.038C413.677 685.76 402.997 667.396 391.3 649.816C380.619 633.763 368.967 618.367 357.959 602.541C348.91 589.532 340.459 575.402 330.07 563.42C329.324 562.56 328.579 562.243 327.551 561.859Z"/>
	<path fill="#E4350E" d="M687.808 552.599C695.649 552.181 703.909 552.406 711.755 552.666C722.277 561.125 734.353 580.788 743.1 592.107Q766.53 622.622 791.398 651.978C789.604 638.465 790.383 624.651 790.404 611.055C790.432 591.722 790.248 572.48 791.06 553.157Q803.514 552.893 815.97 552.969C815.241 588.132 815.704 623.446 815.841 658.622L815.898 691.681C815.88 698.717 816.7 707.239 814.78 714.05L813.16 714.704C808.369 714.488 804.108 710.142 800.786 707.004C795.905 701.959 791.323 696.639 786.407 691.623C775.557 680.55 764.365 669.8 753.703 658.545C735.678 639.515 717.944 619.881 698.629 602.147C699.265 614.608 698.912 627.232 698.891 639.716C698.85 663.862 698.648 687.959 699.024 712.106C691.601 712.974 683.706 712.54 676.219 712.578C674.337 703.381 675.082 692.508 675.133 683.123Q675.197 658.631 675.853 634.149C676.054 624.3 675.421 614.389 675.431 604.524C675.45 587.352 675.951 570.182 675.928 552.996C679.888 552.961 683.851 552.756 687.808 552.599ZM686.529 563.528L685.728 564.365C693.143 587.571 783.185 674.9 804.982 699.103L805.387 698.878C805.248 692.704 805.017 686.544 805.071 680.368C789.921 666.604 777.161 650.433 764.333 634.546L730.986 593.025C723.304 583.276 716.572 572.628 707.749 563.838C700.658 563.076 693.643 563.196 686.529 563.528ZM686.415 588.247C684.645 597.29 685.123 700.993 686.794 703.931C687.004 704.3 687.246 704.435 687.574 704.696C689.774 687.675 688.068 669.278 687.992 652.097C687.907 633.154 688.933 613.629 687.825 594.747C687.701 592.64 687.614 590.037 686.415 588.247ZM803.429 561.449C801.18 570.221 802.812 589.05 802.78 598.97C802.724 616.413 801.832 633.912 802.389 651.35C802.551 656.45 802.265 662.611 804.015 667.397C804.914 664.345 805.37 565.431 804.173 562.494C803.94 561.923 803.803 561.838 803.429 561.449Z"/>
	<path fill="#E4350E" d="M908.778 553.01L917.666 553.174C919.29 557.714 921.138 562.173 922.754 566.723L929.539 553.434C932.36 553.415 935.187 553.192 938.004 553.032C940.76 556.424 942.92 560.163 944.803 564.095C953.041 581.299 960.335 599.09 968.064 616.538Q984.886 654.391 1002.15 692.044C1003.7 695.471 1010.98 709.217 1011.2 712.094C1007.8 714.345 986.903 712.79 981.763 712.62C978.52 707.197 975.856 701.233 973.025 695.574C965.985 695.735 958.957 695.561 951.918 695.404L871.305 695.113C869.055 701.097 866.383 706.804 863.337 712.422C853.921 713.036 844.496 712.731 835.068 712.612C847.317 687.64 858.963 662.338 870.877 637.202C884.001 609.513 897.596 581.533 908.778 553.01ZM933.842 566.443C931.247 569.004 928.423 571.155 925.517 573.348C934.287 595.059 944.436 615.821 954.404 636.974C958.746 646.186 964.204 655.082 967.266 664.826C946.682 663.836 925.7 664.334 905.076 664.454C896.602 664.504 885.014 665.751 876.801 664.136C876.094 662.108 876.626 660.598 877.345 658.613C880.443 650.059 885.204 641.758 889.018 633.479Q902.078 605.131 914.824 576.64C914.448 574.411 914.298 572.255 914.228 569.997C904.038 597.253 890.099 623.256 877.577 649.489C869.517 667.035 857.281 687.597 853.494 706.333C861.112 696.384 863.815 685.132 869.163 674.065C891.126 673.725 913.194 674.482 935.158 674.797C947.997 674.981 960.677 674.206 973.505 675.374C978.193 684.251 982.097 693.846 985.554 703.266C989.761 703.281 993.894 703.362 998.083 703.771C992.394 692.677 987.967 681.242 982.901 669.875C973.493 648.768 963.49 627.912 953.83 606.917C948.987 596.392 944.807 585.385 939.571 575.076C938.305 572.584 936.187 567.963 933.842 566.443ZM921.379 591.516C916.295 605.144 908.847 618.221 902.614 631.378C898.94 639.133 895.882 647.874 891.463 655.184C902.792 655.197 914.127 655.441 925.454 655.379C934.633 655.383 944.397 654.699 953.521 655.507C949.561 647.966 923.153 593.054 921.379 591.516ZM896.859 684.41C889.081 684.499 881.183 684.371 873.43 685.056C884.238 687.965 896.503 687.236 907.639 687.372Q928.848 687.603 950.059 687.547C957.246 687.539 964.615 687.852 971.777 687.349C959.29 682.997 939.754 684.786 926.187 684.698Q911.524 684.461 896.859 684.41Z"/>
	<path fill="#E4350E" d="M549.609 553.042L550.548 553.052C552.064 553.061 553.644 552.969 555.069 553.571C559.641 555.5 560.973 561.599 562.523 565.799C564.703 561.637 567.669 555.732 572.039 553.594C573.731 552.766 575.435 552.698 577.206 553.33C578.097 553.648 578.391 553.981 578.907 554.763C582.998 560.966 585.676 568.637 588.644 575.451Q595.063 590.171 601.803 604.746Q626.63 658.978 652.699 712.623C642.572 712.889 632.382 712.645 622.248 712.638C618.981 707.461 616.499 701.675 613.853 696.161Q601.289 695.571 588.711 695.635Q559.159 695.786 529.609 695.436C522.322 695.397 515.045 695.735 507.758 695.543L500.455 712.067C491.407 712.529 482.448 712.33 473.399 712.082C489.627 674.846 508.234 638.487 525.914 601.925L540.815 570.58C543.568 564.765 546.09 558.425 549.609 553.042ZM573.517 565.401C571.102 568.492 568.726 571.453 565.897 574.177C569.382 581.443 572.057 589.103 575.285 596.492Q586.315 621.323 598.576 645.571C601.719 651.909 604.418 658.627 607.869 664.78C588.405 664.332 568.886 664.545 549.417 664.612C537.398 664.654 525.785 665.219 513.793 663.779C521.542 640.783 533.992 618.543 544.88 596.869C547.804 591.047 551.116 585.186 553.708 579.222C554.404 577.62 554.835 576.36 554.592 574.594L553.698 573.841C548.238 577.51 521.185 638.12 515.484 649.414C511.693 656.907 490.078 698.798 491.149 704.033L491.965 704.698C500.416 696.871 500.59 682.692 509.293 674.674C518.25 673.581 527.386 674.084 536.394 674.203L574.412 674.73C586.589 674.906 600.147 673.25 612.101 675.767C619.04 683.015 622.221 693.837 626.697 702.698C630.538 702.679 634.363 702.682 638.201 702.855C632.328 692.3 627.896 680.657 622.779 669.694Q608.992 640.678 595.536 611.507C591.103 601.639 579.79 571.883 573.517 565.401ZM561.293 589.902C550.359 611.519 538.405 633.106 529.065 655.447L561.367 655.379C571.938 655.358 582.822 654.793 593.346 655.782C586.083 642.977 579.141 630.25 573.074 616.832C569.09 608.02 566.073 598.277 561.293 589.902ZM534.358 684.412C529.773 684.512 517.003 683.659 513.727 685.958L513.91 686.315C524.546 688.783 539.587 687.482 550.729 687.565C563.362 687.658 575.966 688.314 588.606 687.856L589.225 687.796C593.437 687.427 605.431 688.477 608.364 687.126C606.803 685.396 606.174 685.562 603.842 685.422C594.98 684.89 585.939 685.241 577.053 685.096C562.828 684.864 548.585 684.27 534.358 684.412Z"/>
	<path fill="#E4350E" d="M207.586 552.044C226.616 550.534 247.954 555.831 263.111 567.597C280.795 581.325 290.466 601.2 293.131 623.196C295.757 644.882 290.733 667.16 277.097 684.491C260.838 705.157 236.05 711.835 211.066 714.792C188.799 715.529 165.367 709.353 148.413 694.364C134.107 681.715 124.498 662.134 123.476 643.053C122.232 619.83 131.072 595.81 146.623 578.616C162.942 560.572 183.793 553.164 207.586 552.044ZM205.83 573.891C191.733 575.185 179.37 579.684 170.101 590.815C159.163 603.949 154.548 621.885 156.162 638.772Q156.306 640.222 156.521 641.664Q156.736 643.105 157.021 644.534Q157.307 645.963 157.663 647.376Q158.018 648.789 158.443 650.183Q158.868 651.577 159.361 652.949Q159.854 654.32 160.414 655.665Q160.974 657.011 161.6 658.327Q162.225 659.643 162.915 660.927Q163.605 662.211 164.357 663.459Q165.109 664.707 165.921 665.917Q166.734 667.127 167.605 668.295Q168.476 669.463 169.404 670.587Q170.332 671.711 171.314 672.788Q172.296 673.864 173.329 674.891Q174.363 675.919 175.446 676.894Q176.529 677.869 177.659 678.789C189.522 688.372 203.715 692.352 218.875 691.137C233.94 689.153 246.74 681.48 255.974 669.393C265.003 657.574 270.063 642.168 267.925 627.289C265.594 611.077 255.564 595.113 242.403 585.48C232.913 578.533 217.842 572.07 205.83 573.891ZM206.877 560.694L207.338 560.847C213.781 562.915 220.645 563.582 227.137 565.532C246.63 571.389 264.135 585.292 273.504 603.467C282.151 620.241 281.828 639.767 276.056 657.402C270.839 673.34 260.905 686.727 245.748 694.366C228.195 703.213 205.92 704.079 187.407 697.76Q186.002 697.285 184.623 696.742Q183.244 696.198 181.893 695.587Q180.542 694.976 179.223 694.299Q177.904 693.622 176.62 692.881Q175.336 692.14 174.09 691.336Q172.844 690.532 171.64 689.668Q170.435 688.803 169.275 687.881Q168.114 686.958 167.001 685.979Q165.887 685 164.823 683.968Q163.759 682.935 162.748 681.851Q161.736 680.767 160.779 679.635Q159.823 678.502 158.923 677.324Q158.023 676.145 157.183 674.924Q156.342 673.702 155.563 672.441Q154.784 671.18 154.068 669.881Q153.352 668.583 152.701 667.251C143.925 649.095 143.14 624.68 149.93 605.766C155.509 590.226 167.247 578.78 181.326 570.634C176.932 572.145 172.755 573.893 168.661 576.103C151.652 588.395 140.261 605.342 136.865 626.175C134.121 643.009 136.352 660.514 146.517 674.585C158.36 690.979 177.615 700.04 197.194 703.128C216.897 706.234 239.357 703.279 255.804 691.296C271.131 680.129 278.854 662.52 281.561 644.114C284.329 625.287 280.331 607.246 268.885 591.921Q268.309 591.143 267.715 590.38Q267.12 589.617 266.507 588.87Q265.893 588.122 265.261 587.389Q264.629 586.657 263.979 585.94Q263.329 585.224 262.662 584.524Q261.994 583.824 261.309 583.14Q260.624 582.457 259.923 581.791Q259.221 581.125 258.503 580.477Q257.785 579.829 257.051 579.198Q256.317 578.568 255.568 577.956Q254.818 577.344 254.054 576.752Q253.29 576.159 252.511 575.585Q251.732 575.011 250.939 574.457Q250.146 573.903 249.34 573.369Q248.533 572.834 247.714 572.32Q246.894 571.807 246.062 571.313Q245.23 570.82 244.386 570.347Q243.542 569.875 242.686 569.423Q241.83 568.972 240.964 568.542Q240.097 568.112 239.22 567.704Q238.343 567.295 237.456 566.909Q236.569 566.523 235.673 566.159Q234.777 565.795 233.872 565.453Q232.967 565.111 232.054 564.792Q231.14 564.473 230.219 564.177Q229.299 563.881 228.371 563.608Q227.443 563.334 226.508 563.084Q225.573 562.834 224.633 562.608Q223.693 562.381 222.747 562.178Q221.801 561.975 220.85 561.795Q219.9 561.616 218.945 561.46Q217.99 561.304 217.032 561.172C213.713 560.718 210.217 560.332 206.877 560.694Z"/>
	<path fill="#363231" d="M418.054 400.433C439.905 404.402 458.832 439.413 475.871 453.395C484.367 460.366 491.386 454.777 500.626 454.169C503.462 453.982 506.373 454.312 508.916 455.643C517.356 460.064 524.594 468.212 531.938 474.294C545.773 485.751 559.941 496.441 573.338 508.46C584.806 497.053 595.838 483.103 609.743 474.591C616.232 470.619 623.241 468.774 630.439 466.547C650.364 460.382 655.464 451.46 669.368 437.05C674.85 431.369 681.057 426.221 689.417 426.302C693.254 426.339 697.314 427.492 700.85 428.965C717.298 435.815 722.779 451.471 734.706 463.182C740.138 458.99 744.628 453.003 749.126 447.852C760.125 435.257 781.195 409.354 795.99 403.372C817.147 394.817 826.654 434.665 837.316 445.14C838.881 446.676 840.75 447.456 842.741 448.286L843.494 448.594C849.709 446.888 855.585 442.852 862.314 444.084C870.781 445.634 877.022 455.833 879.447 463.532C880.604 467.202 879.973 469.598 882.238 473.032C882.371 473.234 882.508 473.432 882.644 473.633C880.946 474.85 879.333 476.203 877.7 477.506C878.104 478.417 878.697 479.499 878.898 480.468C879.18 481.823 879.019 482.212 878.361 483.3C877.45 483.291 876.642 483.311 875.732 483.419C875.584 485.894 878.662 486.676 878.599 488.876L876.5 489.084L875.99 489.718C876.385 491.267 876.854 492.608 876.467 494.211C874.848 495.045 872.104 494.2 870.349 493.917Q873.924 497.887 877.309 502.02C875.977 502.17 874.633 502.307 873.312 502.533C871.776 502.796 871.017 503.264 870.138 504.517L870.567 505.755C872.437 507.51 874.348 508.363 876.646 509.405C874.268 509.905 871.506 510.215 869.794 512.09L869.921 513.221C872.084 515.283 874.985 516.367 877.663 517.629C872.958 517.378 861.627 518.578 857.793 515.691C858.979 513.358 865.547 510.132 868.032 508.631C865.13 509.008 861.707 510.215 858.866 510.212C857.461 510.211 857.093 509.642 856.097 508.766L856.311 507.778C856.878 507.396 857.494 507.015 858.029 506.586C859.293 505.571 859.465 505.538 859.697 503.999C858.549 502.735 857.077 502.367 855.515 501.814C855.823 499.656 856.248 497.578 855.604 495.448C853.525 488.57 852.096 481.549 850.712 474.506C850.103 479.118 848.979 483.1 847.608 487.519C850.166 491 846.608 489.618 846.521 492.169C846.488 493.139 847.676 493.614 847.521 495.14C847.327 495.262 847.128 495.378 846.938 495.508C844.154 497.413 847.764 498.507 847.261 501.045L845.492 501.603C844.682 503.245 846.45 502.848 846.607 504.671C845.806 505.691 844.984 506.827 844.638 508.102C844.237 509.578 845.205 510.997 845.892 512.229L846.215 512.795L845.787 513.34L844.113 511.912L842.693 512.046L842.547 513.846C841.695 513.141 841.945 513.087 840.737 513.151C840.103 514.409 840.002 514.538 840.179 515.919C841.246 516.207 842.268 516.574 843.306 516.951L843.546 517.8C842.704 518.292 842.213 518.473 841.212 518.509C839.482 518.572 837.248 517.797 836.019 516.636C836.791 516.403 837.531 516.225 838.324 516.068L839.219 515.897L839.574 515.07C839.182 514.374 838.826 513.79 838.168 513.308C836.238 511.896 834.876 511.976 832.621 512.394C830.743 512.741 828.991 513.29 827.247 512.359L827.232 511.79C829.382 508.416 834.38 505.986 837.746 503.96C834.963 504.736 831.058 506.207 828.297 505.138L828.108 504.396C832.746 503.311 836.025 501.66 840.018 499.165C835.727 499.874 831.403 500.36 827.111 501.094C831.264 497.98 835.223 494.847 839.053 491.338C836.22 492.582 833.064 493.923 829.919 493.772C828.239 493.691 827.099 493.557 825.987 492.261L826.31 490.988C827.912 489.116 829.548 488.292 831.713 487.213C830.541 486.657 829.341 486.218 828.15 485.711C826.693 485.091 825.793 484.631 825.207 483.134C825.834 480.597 828.582 479.933 829.346 477.711C829.937 475.992 823.712 473.385 822.69 471.341C821.584 469.129 824.376 467.225 825.013 465.138C823.97 464.383 822.914 463.637 821.951 462.781C820.866 461.817 820.678 461.809 820.599 460.41C821.588 459.32 822.979 458.204 823.109 456.671C819.259 453.052 820.247 446.478 818.788 441.435C814.903 450.043 815.923 450.048 815.356 458.817C815.205 461.144 813.333 461.898 811.667 463.232C811.825 464.925 813.238 465.394 813.96 466.748C814.629 468.003 814.373 468.504 813.973 469.735C812.906 470.482 812.152 470.58 810.891 470.694C810.744 470.707 809.496 470.787 809.304 470.865C809.039 470.972 808.83 471.185 808.593 471.345L808.713 470.888L807.94 471.203C808.949 474.59 813.049 476.556 813.715 479.817C813.873 480.591 813.405 480.953 813.017 481.573C811.053 482.79 809.143 482.923 806.898 483.203C808.532 485.255 811.537 488.276 811.464 491.018C811.441 491.894 810.943 492.126 810.386 492.722C807.968 493.742 805.15 493.331 802.57 493.244C804.326 494.899 807.219 497.112 808.097 499.387C808.412 500.202 808.08 500.451 807.758 501.182C806.029 502.427 804.008 502.387 801.954 502.574C804.63 505.198 806.927 507.842 809.164 510.849C806.579 509.99 803.91 508.617 801.232 508.224C800.784 509.635 801.549 510.398 802.17 511.689C801.754 513.529 799.398 512.657 798.417 514.325C800.303 516.304 803.086 517.765 805.374 519.282C799.627 518.242 793.759 516.833 787.907 516.721C790.124 515.568 793.801 514.165 794.677 511.695L793.942 510.851C791.371 509.954 788.73 510.173 786.042 510.206C788.426 508.986 791.349 507.567 792.938 505.365L792.736 504.33C790.922 503.115 788.5 503.259 786.379 503.119C788.417 500.606 791.304 498.503 792.679 495.554L792.279 494.734C789.765 494.192 787.57 495.595 785.2 495.086L784.787 494.069C785.456 491.968 787.096 490.976 788.761 489.604L788.762 488.517C787.302 486.967 785.526 486.465 783.568 485.732Q785.062 482.61 786.62 479.52L781.36 476.986C782.284 475.093 783.807 472.609 783.547 470.516C777.619 469.133 781.235 466.594 780.537 462.417C780.302 461.011 779.105 459.45 778.342 458.262L777.614 469.054C776.415 470.216 775.375 471.2 774.589 472.704C774.904 472.969 775.331 473.305 775.576 473.628C776.459 474.797 776.341 475.484 776.324 476.876C775.446 478.242 774.698 479.396 774.278 480.993C774.519 481.799 774.952 482.872 774.975 483.703C775.026 485.659 772.897 486.166 771.785 487.618C772.954 488.958 774.39 490.138 774.748 491.894C773.586 492.837 772.96 493.265 772.478 494.741C772.637 496.822 773.96 498.542 775.032 500.275Q771.406 499.311 767.767 498.398C769.191 500.75 771.958 504.302 771.271 507.139C769.847 508.186 768.949 508.011 767.21 508.122L766.864 508.797C768.132 511.025 770.411 512.614 772.341 514.263L772.107 514.706L770.427 514.121C769.753 513.966 769.056 513.782 768.363 513.726C766.089 513.543 765.771 513.619 764.085 515.175C765.131 517.318 767.322 519.098 768.715 521.111L768.277 521.675C767.699 521.628 767.34 521.621 766.801 521.512C758.755 519.877 752.866 489.445 747.422 481.898C745.374 482.182 743.126 482.427 741.245 483.325C734.155 486.71 723.16 501.799 716.039 501.286C714.425 501.169 714.07 500.691 713.139 499.545C712.201 494.022 716.695 487.996 717.937 482.657C719.589 475.557 708.369 473.099 704.58 468.642C701.233 464.704 699.266 459.053 696.405 454.678C694.902 452.38 693.303 450.236 690.498 449.651C686.688 452.222 685.612 464.958 682.108 469.765C678.418 474.826 670.963 474.864 666.473 479.595C657.303 489.26 676.62 494.403 676.791 503.199L675.961 504.048C662.622 508.809 640.511 490.751 627.709 486.314C615.036 489.543 596.613 502.629 584.765 509.412C568.932 518.476 553.057 527.246 536.711 535.36C539.454 531.873 541.79 528.872 541.635 524.213C541.539 521.358 541.257 516.921 538.808 514.97C532.595 510.02 517.872 523.562 510.51 524.324C509.132 524.467 507.798 524.289 506.724 523.347C504.65 521.528 513.467 505.326 512.955 499.38C512.802 497.606 512.032 496.034 510.589 494.97C508.843 493.681 506.397 493.326 504.302 493.074C489.612 491.313 485.021 505.44 471.808 507.684C469.633 508.054 467.388 507.884 465.617 506.447C464.237 505.327 463.175 503.725 463.086 501.916C462.781 495.744 467.849 490.555 471.68 486.327C467.809 484.847 464.114 483.522 460.52 481.426C456.392 473.727 458.455 464.858 454.436 457.325C451.082 451.038 442.868 448.486 438.726 442.481C435.423 437.692 434.184 428.585 431.276 422.813C430.55 421.372 429.788 419.583 428.15 419.04C424.289 421.795 422.822 433.978 419.81 438.334C415.321 444.826 405.912 446.812 401.803 453.642C397.418 460.93 405.349 468.856 406.721 475.913C407.273 478.75 406.736 481.169 405.024 483.5C398.011 493.047 386.762 478.897 378.649 480.993C376.374 481.581 374.887 483.102 373.865 485.16C365.894 501.204 376.767 505.638 380.227 517.781C380.698 519.432 380.697 520.598 379.888 522.161C375.771 524.235 354.963 505.139 350.216 502.038C346.085 499.341 341.994 497.681 337.303 496.224C322.613 501.749 324.744 510.029 318.322 521.584C317.067 523.841 315.416 525.519 312.836 526.107C304.827 527.933 295.066 520.163 288.711 516.001C273.853 520.268 262.145 529.636 246.667 533.619C245.531 529.548 244.069 525.704 242.48 521.79C241.467 524.991 240.445 528.865 238.415 531.556C235.401 535.554 230.869 535.741 226.304 536.348C228.934 535.138 234.554 533.331 235.836 530.642C234.779 529.836 232.827 530.157 231.488 530.132L231.07 529.609C232.306 528.506 233.292 527.58 234.155 526.134L233.849 525.34C231.297 524.474 228.214 524.992 225.549 525.131C227.084 524.471 228.91 523.782 230.237 522.765C231.373 521.895 232.266 520.786 232.431 519.343C230.82 518.3 227.974 518.627 226.02 518.502L225.423 517.788C226.123 515.801 228.272 515.117 228.653 513.141C227.395 512.313 226.565 511.73 225.648 510.502L225.841 509.581C226.859 508.791 227.531 508.23 228.167 507.1L227.868 506.141C225.818 505.407 224.775 504.836 223.868 502.825C223.357 501.691 222.201 498.847 222.606 497.716C232.59 496.865 245.403 513.827 254.166 518.754C256.169 519.881 257.638 520.303 259.898 519.695C264.478 515.5 266.964 508.527 269.988 503.164C275.232 493.865 282.543 485.682 290.198 478.312C295.122 473.573 300.891 468.147 307.594 466.131C321.281 462.013 332.765 480.82 345.115 473.78C351.15 470.34 356.153 462.849 360.601 457.543Q372.34 443.56 384.334 429.795C391.217 421.856 398.093 413.321 406.353 406.77C410.017 403.864 413.495 401.699 418.054 400.433Z"/>
</svg>
