<svg xmlns="http://www.w3.org/2000/svg" width="1120" height="1120"><path fill="#272723" d="M891.568 477.658c-1.882-.876-2.989-1.228-4.182-3.011l.281-1.196c1.542-.534 1.913-.432 3.539-.129 1.444 1.029 1.911 1.872 2.625 3.422-.722.318-1.492.751-2.263.914ZM199.127 509.756c1.603-.949 2.476-1.394 4.359-1.327 1.189.893 1.071 1.099 1.411 2.575-.44.875-.979 1.762-1.247 2.703-2.362.805-5.299.847-7.787 1.141l3.264-5.092ZM206.195 520.67c2.968-.283 5.812-.126 8.759-.267q-1.623.951-3.203 1.973l.108.552c1.113.642 2.026 1.17 2.946 2.084-.85 1.427-2.197 1.271-3.447 2.269-.56.446.881 1.847.829 3.017-.503.438-.54.521-1.246.838-1.776.797-5.969 1.15-7.686.348 1.804-.606 4.769-1.175 5.975-2.668-1.869-1.738-8.181-1.602-10.766-1.799 2.219-.669 4.835-1.124 6.093-3.276.133-.228.538-1.082.74-1.262.276-.247.631-.387.946-.58l-.048-1.229ZM897.711 510.968c1.367-.609 2.725-1.253 4.109-1.823 2.131-.879 3.083-.764 5.196.104.07.217.116.443.21.651.6 1.337 1.768 2.237 2.832 3.204l.21.854c-1.453.155-2.865.209-4.324.236l-.015.809.918.579c.733.468 1.269.862 1.801 1.565l-2.637.062.333.334-15.14 1.645c2.552-1.84 6.051-3.277 8.04-5.632l.104-1.242-1.637-1.346Z"/><path fill="#363231" d="M893.831 476.744c1.697 2.2 3.805 3.497 6.591 3.878 8.989 1.23 18.385-5.812 26.206-9.284 3.491-1.55 7.051-2.597 10.761-3.482-2.317 1.47-5.17 2.852-6.749 5.136-.058 1.282-.187 1.765.908 2.695.755.64 2.052 1.081 2.952 1.517l.912.453c-1.564 1.51-3.829 3.222-4.689 5.228.361.684.729 1.155 1.186 1.787.695.963.787 1.493.923 2.638-.614 1.306-1.258 1.824-2.347 2.717.477 1.353 1.196 1.784 2.252 2.687l-.024.783c-3.418 1.901-7.148 1.603-10.934 1.615q4.372 2.239 8.661 4.632l-6.347 4.384a73.181 73.181 0 0 0 8.828 5.992c-4.035-1.062-9.056-1.803-12.579-4.038l-.451-.785c.787-.826 1.562-1.24 2.571-1.76l-.368-.609c-1.452.104-2.407.506-3.619-.38.346-1.009.557-1.368 1.189-2.177l-.295-.766c-1.722-4.538-2.714-9.455-3.1-14.289-4.448 7.145-6.457 14.803-7.014 23.201-1.042.756-1.046.634-2.239.732-2.113-.868-3.065-.983-5.196-.104-1.384.57-2.742 1.214-4.109 1.823-2.34-.495-4.436-.377-6.8-.252 3.048-2.774 6.044-5.526 8.811-8.584-2.559.517-6.012 1.635-8.584 1.413-.961-.083-1.297-.147-1.857-.933 1.146-2.259 4.983-4.25 7.051-5.79l.102-.948c-2.922-.309-5.932-.022-8.864.099 2.361-2.155 4.795-4.014 7.4-5.862l-7.862-2.038c1.131-1.134 2.703-2.434 3.482-3.834.534-.961.467-1.016.107-2.085l-2.091-.745-.033-.833c.92-1.079 1.944-1.971 2.995-2.918.771-.163 1.541-.596 2.263-.914ZM949.414 459.493c4.916.587 7.794 2.064 11.434 5.375 7.378 6.712 13.474 14.932 19.882 22.547 6.998 8.317 14.486 16.546 22.18 24.224 6.87 6.849 14.23 13.585 21.82 19.632 6.09 4.854 13.14 9.187 18.38 14.949-11.92-1.598-45.01-11.586-56.391-16.633 1.495-.822 3.164-1.526 4.25-2.878-.486-1.692-1.492-2.249-2.779-3.416.179-.548.042-.27.564-.878.145-.169.294-.334.441-.501l-.146-1.185c-1.179-1.065-2.481-1.954-3.773-2.874-1.401 1.304-3.616 4.002-5.518 4.245-.582-1.159-.656-1.165-.376-2.417 1.22-1.568 2.433-2.323 4.149-3.318l.663-.378c-1.993-.876-2.978 1.055-4.859.283-.106-1.923-.147-3.895-.382-5.805-.367-2.995-1.72-3.819-3.973-5.579-.504-2.591-.778-5.865-3.073-7.441-4.4 3.424-3.794 13.824-5.718 18.89-.103.272-.214.541-.321.811q.604.8 1.18 1.621l-.306.785c-2.699.796-5.997.479-8.808.499-.539-1.798-.888-3.365-.916-5.256-.018-1.176.096-1.444-.502-2.484-1.586.472-3.748 1.285-5.416 1.139-1.366-.119-1.612-.821-2.243-1.849 1.398-2.817 5.125-3.065 6.514-5.916l-.747-1.168c-2.488-1.644-5.17-2.045-8.038-2.642q2.27-1.386 4.511-2.818c1.378-.896 2.543-1.526 2.888-3.189-2.14-1.789-5.489-1.934-8.178-2.38 2.885-2.509 5.908-4.892 8.104-8.056-2.452.232-5.372.746-7.782.047-.896-.26-.596-.144-1.042-1.093 1.395-2.578 3.918-4.446 5.702-6.808l.36-.484c-1.764-.858-4.588-1.899-5.846-3.414-.992-1.194-.896-1.774-.78-3.199.975-1.237 1.95-2.033 3.23-2.952l.482-.341-.085-.796c-2.472-1.27-5.375-1.545-8.089-2.032 2.996-1.868 6.172-3.344 9.353-4.867ZM76.748 546.451c11.409-12.544 24.656-23.235 36.262-35.683q13.74-14.976 27.123-30.271c6.445-7.383 12.569-14.998 19.92-21.529 3.059-2.719 6.465-4.636 10.627-4.936 9.002-.65 17.304 7.582 23.46 13.205 8.378 7.651 16.282 15.854 24.151 24.021.171 4.658-1.062 5.408-1.952 9.469-.634 2.889-.92 5.947-1.326 8.881-.319 2.302 1.287 2.764.589 5.044-.961.805-2.985 2.032-3.151 3.197l2.69 1.347c.099 1.012.268.642-.187 1.207-2.947.141-5.791-.016-8.759.267-.606-.09-1.126-.246-1.709-.426.273-.999.67-2.11.786-3.135.19-1.68-.636-2.188-1.622-3.402.268-.941.807-1.828 1.247-2.703-.34-1.476-.222-1.682-1.411-2.575-1.883-.067-2.756.378-4.359 1.327l-1.413-.868c-.036-.296-.068-.593-.108-.888-.135-.997-.413-1.853-.714-2.807-2.034-6.442-2.254-13.716-2.821-20.425-1.27 8.043-1.599 17.366-5.859 24.446.082 1.302.464 2.08 1.062 3.229l-.342 1.073c-1.12.07-2.086.038-3.197-.122l-.265.753c.628 1.051 1.555 2.228 1.796 3.426-1.053 1.864-2.038 3.483-2.748 5.522.571 1.091 1.203 2.087 1.893 3.106l-.137.869c-1.053.16-2.061.23-3.125.259.713 1.982 2.266 3.741 3.492 5.456-3.202-.507-5.152-.877-7.789-2.909-3.101-2.39-4.938-2.618-8.751-3.141 2.387-1.064 4.82-1.928 6.712-3.783l.021-.943c-2.872-1.331-6.49-.951-9.606-.947 3.196-1.262 6.83-2.553 8.949-5.391l.095-1.096c-2.163-.922-5.481 1.468-6.622-1.03 1.469-1.934 4.725-2.761 5.657-4.837-2.261-1.085-4.904.189-7.028-1.069.055-1.125.781-1.759 1.602-2.488.723-.642 1.558-1.195 2.349-1.752-1.342-1.336-3.501-1.446-3.882-3.264.508-1.313 1.273-2.251.704-3.586l-2.389-.811-.362-1.034c.751-1.495 1.631-2.705 2.666-4.017-.915-1.354-2.276-1.761-3.184-2.899-.75-.938-.758-9.194-1.476-11.569-.22-.724-.429-1.444-.663-2.164-1.133 3.181-3.282 7.69-3.269 11.034l1.034 1.893c-.887 1.88-2.653 1.87-3.261 3.83l.441 1.026c.388.915.669 1.779.886 2.752-.714.835-2.312 2.065-2.192 3.141.186 1.667 1.39 3.253.76 4.779l-1.111-.026c-.905-.017-1.652.026-2.533.261.76 2.134 3.114 2.958 3.613 5.047-1.446.547-2.83.327-4.334.213l-.254.562c.799 1.236 2.228 2.647 1.955 4.105q-1.562.367-3.13.712l-.157.713c.997 1.142 3.492 3.249 3.477 4.683-2.207.242-4.583-.714-6.696-1.309 2.824 3.161 5.408 5.639 9.017 7.927-3.501-.345-6.882-.541-10.4-.466 2.222 1.599 4.494 3.16 6.675 4.813-6.572 1.24-12.043 2.666-18.841 2.337 2.719-1.304 5.42-2.615 8.231-3.712l-5.671-1.493c-.731-3.363-1.222-11.69-3.519-13.807-.985.876-.662.342-.99 1.506-.659 2.345-4.275 9.035-3.706 10.582 1.141.997 1.907 1.363 2.302 2.851-1.55 1.471-4.862-.342-5.59 1.584 1.161 2.156 2.952 3.742 4.666 5.46-1.64-.396-4.283-1.436-5.873-.771-.035.266-.052.536-.107.799-.4 1.902-1.796 2.939-3.395 3.856-9.365 5.366-34.208 7.56-44.924 7.514Z"/><path fill="#E4350E" d="M322.979 552.596q6.532-.161 13.066-.205c6.48 5.645 11.751 16.48 16.57 23.894 9.524 14.653 18.844 29.645 29.535 43.487 7.943-14.063 17.954-26.887 27.588-39.807 6.757-9.062 13.252-18.27 19.756-27.512 9.311.11 18.609.49 27.932.525-5.459 10.461-14.056 19.516-21.08 28.959-14.045 18.882-27.749 38.345-42.529 56.648 15.637 23.197 31.729 45.912 48.141 68.567 1.25 1.621 2.413 3.326 3.61 4.988-7.891 1.032-28.867 1.671-36.052-.308-8.498-2.342-31.192-44.024-36.133-52.369-5.371 8.556-11.624 16.702-17.497 24.924-6.574 9.205-12.948 18.689-19.953 27.57-9.322.908-18.775.389-28.119.148q28.779-37.077 55.455-75.694c-3.896-5.739-7.303-11.853-10.995-17.732-5.211-8.299-10.712-16.46-16.159-24.603-9.07-13.56-19.504-26.456-26.789-41.09q6.831-.047 13.653-.39Zm4.572 9.263c16.126 24.73 36.034 50.145 45.548 78.377-10.141 14.273-20.78 28.243-31.073 42.417-4.913 6.767-10.598 13.222-14.207 20.82l-.48.999c5.856-5.003 9.713-11.688 14.081-17.955q9.039-12.808 18.248-25.494c4.311-5.961 8.679-12.656 13.912-17.84 1.493 2.037 3.03 4.051 4.388 6.182 11.087 17.845 22.526 35.615 33.129 53.747q7.349-.159 14.699-.074c-12.119-17.278-22.799-35.642-34.496-53.222-10.681-16.053-22.333-31.449-33.341-47.275-9.049-13.009-17.5-27.139-27.889-39.121-.746-.86-1.491-1.177-2.519-1.561ZM687.808 552.599c7.841-.418 16.101-.193 23.947.067 10.522 8.459 22.598 28.122 31.345 39.441q23.43 30.515 48.298 59.871c-1.794-13.513-1.015-27.327-.994-40.923.028-19.333-.156-38.575.656-57.898q12.454-.264 24.91-.188c-.729 35.163-.266 70.477-.129 105.653l.057 33.059c-.018 7.036.802 15.558-1.118 22.369l-1.62.654c-4.791-.216-9.052-4.562-12.374-7.7-4.881-5.045-9.463-10.365-14.379-15.381-10.85-11.073-22.042-21.823-32.704-33.078-18.025-19.03-35.759-38.664-55.074-56.398.636 12.461.283 25.085.262 37.569-.041 24.146-.243 48.243.133 72.39-7.423.868-15.318.434-22.805.472-1.882-9.197-1.137-20.07-1.086-29.455q.064-24.492.72-48.974c.201-9.849-.432-19.76-.422-29.625.019-17.172.52-34.342.497-51.528 3.96-.035 7.923-.24 11.88-.397Zm-1.279 10.929-.801.837c7.415 23.206 97.457 110.535 119.254 134.738l.405-.225c-.139-6.174-.37-12.334-.316-18.51-15.15-13.764-27.91-29.935-40.738-45.822l-33.347-41.521c-7.682-9.749-14.414-20.397-23.237-29.187-7.091-.762-14.106-.642-21.22-.31Zm-.114 24.719c-1.77 9.043-1.292 112.746.379 115.684.21.369.452.504.78.765 2.2-17.021.494-35.418.418-52.599-.085-18.943.941-38.468-.167-57.35-.124-2.107-.211-4.71-1.41-6.5Zm117.014-26.798c-2.249 8.772-.617 27.601-.649 37.521-.056 17.443-.948 34.942-.391 52.38.162 5.1-.124 11.261 1.626 16.047.899-3.052 1.355-101.966.158-104.903-.233-.571-.37-.656-.744-1.045ZM908.778 553.01l8.888.164c1.624 4.54 3.472 8.999 5.088 13.549l6.785-13.289c2.821-.019 5.648-.242 8.465-.402 2.756 3.392 4.916 7.131 6.799 11.063 8.238 17.204 15.532 34.995 23.261 52.443q16.822 37.853 34.086 75.506c1.55 3.427 8.83 17.173 9.05 20.05-3.4 2.251-24.297.696-29.437.526-3.243-5.423-5.907-11.387-8.738-17.046-7.04.161-14.068-.013-21.107-.17l-80.613-.291c-2.25 5.984-4.922 11.691-7.968 17.309-9.416.614-18.841.309-28.269.19 12.249-24.972 23.895-50.274 35.809-75.41 13.124-27.689 26.719-55.669 37.901-84.192Zm25.064 13.433c-2.595 2.561-5.419 4.712-8.325 6.905 8.77 21.711 18.919 42.473 28.887 63.626 4.342 9.212 9.8 18.108 12.862 27.852-20.584-.99-41.566-.492-62.19-.372-8.474.05-20.062 1.297-28.275-.318-.707-2.028-.175-3.538.544-5.523 3.098-8.554 7.859-16.855 11.673-25.134q13.06-28.348 25.806-56.839c-.376-2.229-.526-4.385-.596-6.643-10.19 27.256-24.129 53.259-36.651 79.492-8.06 17.546-20.296 38.108-24.083 56.844 7.618-9.949 10.321-21.201 15.669-32.268 21.963-.34 44.031.417 65.995.732 12.839.184 25.519-.591 38.347.577 4.688 8.877 8.592 18.472 12.049 27.892 4.207.015 8.34.096 12.529.505-5.689-11.094-10.116-22.529-15.182-33.896-9.408-21.107-19.411-41.963-29.071-62.958-4.843-10.525-9.023-21.532-14.259-31.841-1.266-2.492-3.384-7.113-5.729-8.633Zm-12.463 25.073c-5.084 13.628-12.532 26.705-18.765 39.862-3.674 7.755-6.732 16.496-11.151 23.806 11.329.013 22.664.257 33.991.195 9.179.004 18.943-.68 28.067.128-3.96-7.541-30.368-62.453-32.142-63.991Zm-24.52 92.894c-7.778.089-15.676-.039-23.429.646 10.808 2.909 23.073 2.18 34.209 2.316q21.209.231 42.42.175c7.187-.008 14.556.305 21.718-.198-12.487-4.352-32.023-2.563-45.59-2.651q-14.663-.237-29.328-.288ZM549.609 553.042l.939.01c1.516.009 3.096-.083 4.521.519 4.572 1.929 5.904 8.028 7.454 12.228 2.18-4.162 5.146-10.067 9.516-12.205 1.692-.828 3.396-.896 5.167-.264.891.318 1.185.651 1.701 1.433 4.091 6.203 6.769 13.874 9.737 20.688q6.419 14.72 13.159 29.295 24.827 54.232 50.896 107.877c-10.127.266-20.317.022-30.451.015-3.267-5.177-5.749-10.963-8.395-16.477q-12.564-.59-25.142-.526-29.552.151-59.102-.199c-7.287-.039-14.564.299-21.851.107l-7.303 16.524c-9.048.462-18.007.263-27.056.015 16.228-37.236 34.835-73.595 52.515-110.157l14.901-31.345c2.753-5.815 5.275-12.155 8.794-17.538Zm23.908 12.359c-2.415 3.091-4.791 6.052-7.62 8.776 3.485 7.266 6.16 14.926 9.388 22.315q11.03 24.831 23.291 49.079c3.143 6.338 5.842 13.056 9.293 19.209-19.464-.448-38.983-.235-58.452-.168-12.019.042-23.632.607-35.624-.833 7.749-22.996 20.199-45.236 31.087-66.91 2.924-5.822 6.236-11.683 8.828-17.647.696-1.602 1.127-2.862.884-4.628l-.894-.753c-5.46 3.669-32.513 64.279-38.214 75.573-3.791 7.493-25.406 49.384-24.335 54.619l.816.665c8.451-7.827 8.625-22.006 17.328-30.024 8.957-1.093 18.093-.59 27.101-.471l38.018.527c12.177.176 25.735-1.48 37.689 1.037 6.939 7.248 10.12 18.07 14.596 26.931 3.841-.019 7.666-.016 11.504.157-5.873-10.555-10.305-22.198-15.422-33.161q-13.787-29.016-27.243-58.187c-4.433-9.868-15.746-39.624-22.019-46.106Zm-12.224 24.501c-10.934 21.617-22.888 43.204-32.228 65.545l32.302-.068c10.571-.021 21.455-.586 31.979.403-7.263-12.805-14.205-25.532-20.272-38.95-3.984-8.812-7.001-18.555-11.781-26.93Zm-26.935 94.51c-4.585.1-17.355-.753-20.631 1.546l.183.357c10.636 2.468 25.677 1.167 36.819 1.25 12.633.093 25.237.749 37.877.291l.619-.06c4.212-.369 16.206.681 19.139-.67-1.561-1.73-2.19-1.564-4.522-1.704-8.862-.532-17.903-.181-26.789-.326-14.225-.232-28.468-.826-42.695-.684ZM207.586 552.044c19.03-1.51 40.368 3.787 55.525 15.553 17.684 13.728 27.355 33.603 30.02 55.599 2.626 21.686-2.398 43.964-16.034 61.295-16.259 20.666-41.047 27.344-66.031 30.301-22.267.737-45.699-5.439-62.653-20.428-14.306-12.649-23.915-32.23-24.937-51.311-1.244-23.223 7.596-47.243 23.147-64.437 16.319-18.044 37.17-25.452 60.963-26.572Zm-1.756 21.847c-14.097 1.294-26.46 5.793-35.729 16.924-10.938 13.134-15.553 31.07-13.939 47.957q.144 1.45.359 2.892.215 1.441.5 2.87.286 1.429.642 2.842.355 1.413.78 2.807.425 1.394.918 2.766.493 1.371 1.053 2.716.56 1.346 1.186 2.662.625 1.316 1.315 2.6t1.442 2.532q.752 1.248 1.564 2.458.813 1.21 1.684 2.378.871 1.168 1.799 2.292.928 1.124 1.91 2.201.982 1.076 2.015 2.103 1.034 1.028 2.117 2.003 1.083.975 2.213 1.895c11.863 9.583 26.056 13.563 41.216 12.348 15.065-1.984 27.865-9.657 37.099-21.744 9.029-11.819 14.089-27.225 11.951-42.104-2.331-16.212-12.361-32.176-25.522-41.809-9.49-6.947-24.561-13.41-36.573-11.589Zm1.047-13.197.461.153c6.443 2.068 13.307 2.735 19.799 4.685 19.493 5.857 36.998 19.76 46.367 37.935 8.647 16.774 8.324 36.3 2.552 53.935-5.217 15.938-15.151 29.325-30.308 36.964-17.553 8.847-39.828 9.713-58.341 3.394q-1.405-.475-2.784-1.018-1.379-.544-2.73-1.155t-2.67-1.288q-1.319-.677-2.603-1.418-1.284-.741-2.53-1.545-1.246-.804-2.45-1.668-1.205-.865-2.365-1.787-1.161-.923-2.274-1.902-1.114-.979-2.178-2.011-1.064-1.033-2.075-2.117-1.012-1.084-1.969-2.216-.956-1.133-1.856-2.311-.9-1.179-1.74-2.4-.841-1.222-1.62-2.483-.779-1.261-1.495-2.56-.716-1.298-1.367-2.63c-8.776-18.156-9.561-42.571-2.771-61.485 5.579-15.54 17.317-26.986 31.396-35.132-4.394 1.511-8.571 3.259-12.665 5.469-17.009 12.292-28.4 29.239-31.796 50.072-2.744 16.834-.513 34.339 9.652 48.41 11.843 16.394 31.098 25.455 50.677 28.543 19.703 3.106 42.163.151 58.61-11.832 15.327-11.167 23.05-28.776 25.757-47.182 2.768-18.827-1.23-36.868-12.676-52.193q-.576-.778-1.17-1.541-.595-.763-1.208-1.51-.614-.748-1.246-1.481-.632-.732-1.282-1.449-.65-.716-1.317-1.416-.668-.7-1.353-1.384-.685-.683-1.386-1.349-.702-.666-1.42-1.314t-1.452-1.279q-.734-.63-1.483-1.242-.75-.612-1.514-1.204-.764-.593-1.543-1.167-.779-.574-1.572-1.128-.793-.554-1.599-1.088-.807-.535-1.626-1.049-.82-.513-1.652-1.007-.832-.493-1.676-.966-.844-.472-1.7-.924-.856-.451-1.722-.881-.867-.43-1.744-.838-.877-.409-1.764-.795-.887-.386-1.783-.75-.896-.364-1.801-.706-.905-.342-1.818-.661-.914-.319-1.835-.615-.92-.296-1.848-.569-.928-.274-1.863-.524-.935-.25-1.875-.476-.94-.227-1.886-.43-.946-.203-1.897-.383-.95-.179-1.905-.335-.955-.156-1.913-.288c-3.319-.454-6.815-.84-10.155-.478Z"/><path fill="#363231" d="M418.054 400.433c21.851 3.969 40.778 38.98 57.817 52.962 8.496 6.971 15.515 1.382 24.755.774 2.836-.187 5.747.143 8.29 1.474 8.44 4.421 15.678 12.569 23.022 18.651 13.835 11.457 28.003 22.147 41.4 34.166 11.468-11.407 22.5-25.357 36.405-33.869 6.489-3.972 13.498-5.817 20.696-8.044 19.925-6.165 25.025-15.087 38.929-29.497 5.482-5.681 11.689-10.829 20.049-10.748 3.837.037 7.897 1.19 11.433 2.663 16.448 6.85 21.929 22.506 33.856 34.217 5.432-4.192 9.922-10.179 14.42-15.33 10.999-12.595 32.069-38.498 46.864-44.48 21.157-8.555 30.664 31.293 41.326 41.768 1.565 1.536 3.434 2.316 5.425 3.146l.753.308c6.215-1.706 12.091-5.742 18.82-4.51 8.467 1.55 14.708 11.749 17.133 19.448 1.157 3.67.526 6.066 2.791 9.5.133.202.27.4.406.601-1.698 1.217-3.311 2.57-4.944 3.873.404.911.997 1.993 1.198 2.962.282 1.355.121 1.744-.537 2.832-.911-.009-1.719.011-2.629.119-.148 2.475 2.93 3.257 2.867 5.457l-2.099.208-.51.634c.395 1.549.864 2.89.477 4.493-1.619.834-4.363-.011-6.118-.294q3.575 3.97 6.96 8.103c-1.332.15-2.676.287-3.997.513-1.536.263-2.295.731-3.174 1.984l.429 1.238c1.87 1.755 3.781 2.608 6.079 3.65-2.378.5-5.14.81-6.852 2.685l.127 1.131c2.163 2.062 5.064 3.146 7.742 4.408-4.705-.251-16.036.949-19.87-1.938 1.186-2.333 7.754-5.559 10.239-7.06-2.902.377-6.325 1.584-9.166 1.581-1.405-.001-1.773-.57-2.769-1.446l.214-.988c.567-.382 1.183-.763 1.718-1.192 1.264-1.015 1.436-1.048 1.668-2.587-1.148-1.264-2.62-1.632-4.182-2.185.308-2.158.733-4.236.089-6.366-2.079-6.878-3.508-13.899-4.892-20.942-.609 4.612-1.733 8.594-3.104 13.013 2.558 3.481-1 2.099-1.087 4.65-.033.97 1.155 1.445 1 2.971-.194.122-.393.238-.583.368-2.784 1.905.826 2.999.323 5.537l-1.769.558c-.81 1.642.958 1.245 1.115 3.068-.801 1.02-1.623 2.156-1.969 3.431-.401 1.476.567 2.895 1.254 4.127l.323.566-.428.545-1.674-1.428-1.42.134-.146 1.8c-.852-.705-.602-.759-1.81-.695-.634 1.258-.735 1.387-.558 2.768 1.067.288 2.089.655 3.127 1.032l.24.849c-.842.492-1.333.673-2.334.709-1.73.063-3.964-.712-5.193-1.873a23.85 23.85 0 0 1 2.305-.568l.895-.171.355-.827c-.392-.696-.748-1.28-1.406-1.762-1.93-1.412-3.292-1.332-5.547-.914-1.878.347-3.63.896-5.374-.035l-.015-.569c2.15-3.374 7.148-5.804 10.514-7.83-2.783.776-6.688 2.247-9.449 1.178l-.189-.742c4.638-1.085 7.917-2.736 11.91-5.231-4.291.709-8.615 1.195-12.907 1.929 4.153-3.114 8.112-6.247 11.942-9.756-2.833 1.244-5.989 2.585-9.134 2.434-1.68-.081-2.82-.215-3.932-1.511l.323-1.273c1.602-1.872 3.238-2.696 5.403-3.775-1.172-.556-2.372-.995-3.563-1.502-1.457-.62-2.357-1.08-2.943-2.577.627-2.537 3.375-3.201 4.139-5.423.591-1.719-5.634-4.326-6.656-6.37-1.106-2.212 1.686-4.116 2.323-6.203-1.043-.755-2.099-1.501-3.062-2.357-1.085-.964-1.273-.972-1.352-2.371.989-1.09 2.38-2.206 2.51-3.739-3.85-3.619-2.862-10.193-4.321-15.236-3.885 8.608-2.865 8.613-3.432 17.382-.151 2.327-2.023 3.081-3.689 4.415.158 1.693 1.571 2.162 2.293 3.516.669 1.255.413 1.756.013 2.987-1.067.747-1.821.845-3.082.959-.147.013-1.395.093-1.587.171-.265.107-.474.32-.711.48l.12-.457-.773.315c1.009 3.387 5.109 5.353 5.775 8.614.158.774-.31 1.136-.698 1.756-1.964 1.217-3.874 1.35-6.119 1.63 1.634 2.052 4.639 5.073 4.566 7.815-.023.876-.521 1.108-1.078 1.704-2.418 1.02-5.236.609-7.816.522 1.756 1.655 4.649 3.868 5.527 6.143.315.815-.017 1.064-.339 1.795-1.729 1.245-3.75 1.205-5.804 1.392a69.031 69.031 0 0 1 7.21 8.275c-2.585-.859-5.254-2.232-7.932-2.625-.448 1.411.317 2.174.938 3.465-.416 1.84-2.772.968-3.753 2.636 1.886 1.979 4.669 3.44 6.957 4.957-5.747-1.04-11.615-2.449-17.467-2.561 2.217-1.153 5.894-2.556 6.77-5.026l-.735-.844c-2.571-.897-5.212-.678-7.9-.645 2.384-1.22 5.307-2.639 6.896-4.841l-.202-1.035c-1.814-1.215-4.236-1.071-6.357-1.211 2.038-2.513 4.925-4.616 6.3-7.565l-.4-.82c-2.514-.542-4.709.861-7.079.352l-.413-1.017c.669-2.101 2.309-3.093 3.974-4.465l.001-1.087c-1.46-1.55-3.236-2.052-5.194-2.785q1.494-3.122 3.052-6.212l-5.26-2.534c.924-1.893 2.447-4.377 2.187-6.47-5.928-1.383-2.312-3.922-3.01-8.099-.235-1.406-1.432-2.967-2.195-4.155l-.728 10.792c-1.199 1.162-2.239 2.146-3.025 3.65.315.265.742.601.987.924.883 1.169.765 1.856.748 3.248-.878 1.366-1.626 2.52-2.046 4.117.241.806.674 1.879.697 2.71.051 1.956-2.078 2.463-3.19 3.915 1.169 1.34 2.605 2.52 2.963 4.276-1.162.943-1.788 1.371-2.27 2.847.159 2.081 1.482 3.801 2.554 5.534q-3.626-.964-7.265-1.877c1.424 2.352 4.191 5.904 3.504 8.741-1.424 1.047-2.322.872-4.061.983l-.346.675c1.268 2.228 3.547 3.817 5.477 5.466l-.234.443-1.68-.585c-.674-.155-1.371-.339-2.064-.395-2.274-.183-2.592-.107-4.278 1.449 1.046 2.143 3.237 3.923 4.63 5.936l-.438.564c-.578-.047-.937-.054-1.476-.163-8.046-1.635-13.935-32.067-19.379-39.614-2.048.284-4.296.529-6.177 1.427-7.09 3.385-18.085 18.474-25.206 17.961-1.614-.117-1.969-.595-2.9-1.741-.938-5.523 3.556-11.549 4.798-16.888 1.652-7.1-9.568-9.558-13.357-14.015-3.347-3.938-5.314-9.589-8.175-13.964-1.503-2.298-3.102-4.442-5.907-5.027-3.81 2.571-4.886 15.307-8.39 20.114-3.69 5.061-11.145 5.099-15.635 9.83-9.17 9.665 10.147 14.808 10.318 23.604l-.83.849c-13.339 4.761-35.45-13.297-48.252-17.734-12.673 3.229-31.096 16.315-42.944 23.098-15.833 9.064-31.708 17.834-48.054 25.948 2.743-3.487 5.079-6.488 4.924-11.147-.096-2.855-.378-7.292-2.827-9.243-6.213-4.95-20.936 8.592-28.298 9.354-1.378.143-2.712-.035-3.786-.977-2.074-1.819 6.743-18.021 6.231-23.967-.153-1.774-.923-3.346-2.366-4.41-1.746-1.289-4.192-1.644-6.287-1.896-14.69-1.761-19.281 12.366-32.494 14.61-2.175.37-4.42.2-6.191-1.237-1.38-1.12-2.442-2.722-2.531-4.531-.305-6.172 4.763-11.361 8.594-15.589-3.871-1.48-7.566-2.805-11.16-4.901-4.128-7.699-2.065-16.568-6.084-24.101-3.354-6.287-11.568-8.839-15.71-14.844-3.303-4.789-4.542-13.896-7.45-19.668-.726-1.441-1.488-3.23-3.126-3.773-3.861 2.755-5.328 14.938-8.34 19.294-4.489 6.492-13.898 8.478-18.007 15.308-4.385 7.288 3.546 15.214 4.918 22.271.552 2.837.015 5.256-1.697 7.587-7.013 9.547-18.262-4.603-26.375-2.507-2.275.588-3.762 2.109-4.784 4.167-7.971 16.044 2.902 20.478 6.362 32.621.471 1.651.47 2.817-.339 4.38-4.117 2.074-24.925-17.022-29.672-20.123-4.131-2.697-8.222-4.357-12.913-5.814-14.69 5.525-12.559 13.805-18.981 25.36-1.255 2.257-2.906 3.935-5.486 4.523-8.009 1.826-17.77-5.944-24.125-10.106-14.858 4.267-26.566 13.635-42.044 17.618-1.136-4.071-2.598-7.915-4.187-11.829-1.013 3.201-2.035 7.075-4.065 9.766-3.014 3.998-7.546 4.185-12.111 4.792 2.63-1.21 8.25-3.017 9.532-5.706-1.057-.806-3.009-.485-4.348-.51l-.418-.523c1.236-1.103 2.222-2.029 3.085-3.475l-.306-.794c-2.552-.866-5.635-.348-8.3-.209 1.535-.66 3.361-1.349 4.688-2.366 1.136-.87 2.029-1.979 2.194-3.422-1.611-1.043-4.457-.716-6.411-.841l-.597-.714c.7-1.987 2.849-2.671 3.23-4.647-1.258-.828-2.088-1.411-3.005-2.639l.193-.921c1.018-.79 1.69-1.351 2.326-2.481l-.299-.959c-2.05-.734-3.093-1.305-4-3.316-.511-1.134-1.667-3.978-1.262-5.109 9.984-.851 22.797 16.111 31.56 21.038 2.003 1.127 3.472 1.549 5.732.941 4.58-4.195 7.066-11.168 10.09-16.531 5.244-9.299 12.555-17.482 20.21-24.852 4.924-4.739 10.693-10.165 17.396-12.181 13.687-4.118 25.171 14.689 37.521 7.649 6.035-3.44 11.038-10.931 15.486-16.237q11.739-13.983 23.733-27.748c6.883-7.939 13.759-16.474 22.019-23.025 3.664-2.906 7.142-5.071 11.701-6.337Z"/></svg>