<?xml version="1.0" encoding="utf-8"?><svg viewBox="0 0 793.701 793.701" xmlns="http://www.w3.org/2000/svg" xmlns:xlink="http://www.w3.org/1999/xlink"><style>:root>svg{display:none}:root>svg:target{display:block}</style><svg fill="none" viewBox="0 0 38 38" id="arrow-left" xmlns="http://www.w3.org/2000/svg"><path d="M30 19.5H9m0 0 6.192 6.5M9 19.5l6.192-6.5" stroke="currentColor"/><rect x="1" y="1" width="36" height="36" rx="18" stroke="currentColor"/></svg><svg fill="none" viewBox="0 0 38 38" id="arrow-right" xmlns="http://www.w3.org/2000/svg"><path d="M8 19.5h21m0 0L22.808 26M29 19.5 22.808 13" stroke="currentColor"/><rect x="1" y="1" width="36" height="36" rx="18" stroke="currentColor"/></svg><svg fill="none" viewBox="0 0 16 22" id="arrow-up" xmlns="http://www.w3.org/2000/svg"><path d="M9.031.585a1.444 1.444 0 0 0-.477-.303 1.358 1.358 0 0 0-1.097 0c-.178.069-.34.172-.477.303L1.202 6.363a1.45 1.45 0 0 0 2.051 2.051l3.308-3.322v15.297a1.444 1.444 0 1 0 2.889 0V5.092l3.308 3.322a1.45 1.45 0 0 0 2.05-2.051L9.032.585Z" fill="currentColor"/></svg><svg fill="none" viewBox="0 0 24 24" id="bracket-gt" xmlns="http://www.w3.org/2000/svg"><path d="M8.4 1.2 6.72 3l8.88 9-8.88 9 1.68 1.8L19.2 12 8.4 1.2Z" fill="currentColor"/></svg><svg fill="none" viewBox="0 0 24 24" id="bracket-lt" xmlns="http://www.w3.org/2000/svg"><path d="m15.6 22.8 1.68-1.8-8.88-9 8.88-9-1.68-1.8L4.8 12l10.8 10.8Z" fill="currentColor"/></svg><svg fill="none" viewBox="0 0 40 40" id="burger" xmlns="http://www.w3.org/2000/svg"><rect y="7" width="40" height="4" rx="2" fill="currentColor"/><rect y="18" width="40" height="4" rx="2" fill="currentColor"/><rect y="29" width="40" height="4" rx="2" fill="currentColor"/></svg><svg viewBox="0 0 14 14" id="cross" xmlns="http://www.w3.org/2000/svg"><path fill-rule="evenodd" clip-rule="evenodd" d="m8.414 7 5.293-5.293A.999.999 0 1 0 12.293.293L7 5.586 1.707.293A.999.999 0 1 0 .293 1.707L5.586 7 .293 12.293a.999.999 0 1 0 1.414 1.414L7 8.414l5.293 5.293a.997.997 0 0 0 1.414 0 .999.999 0 0 0 0-1.414L8.414 7Z" fill="currentColor"/></svg><svg aria-label="Mail" viewBox="0 0 512 512" id="mail" xmlns="http://www.w3.org/2000/svg"><rect width="512" height="512" rx="15%" fill="#328cff"/><path d="M250 186c-46 0-69 35-69 74 0 44 29 72 68 72 43 0 73-32 73-75 0-44-34-71-72-71zm-1-37c30 0 57 13 77 33 0-22 35-22 35 1v150c-1 10 10 16 16 9 25-25 54-128-14-187-64-56-149-47-195-15-48 33-79 107-49 175 33 76 126 99 182 76 28-12 41 26 12 39-45 19-168 17-225-82-38-68-36-185 67-248 78-46 182-33 244 32 66 69 62 197-2 246-28 23-71 1-71-32v-11c-20 20-47 32-77 32-57 0-108-51-108-108 0-58 51-110 108-110" fill="#fff"/></svg><svg style="shape-rendering:geometricPrecision;text-rendering:geometricPrecision;image-rendering:optimizeQuality;fill-rule:evenodd;clip-rule:evenodd" viewBox="0 0 826772 826772" xml:space="preserve" id="telephone" xmlns="http://www.w3.org/2000/svg"><defs><style>.ifil1,.ifil2{fill:#2e373c;fill-rule:nonzero}.ifil2{fill:#fff}</style></defs><g id="iLayer_x0020_1"><path style="fill:#dd4b39" d="M0 0h826772v826772H0z"/><g id="i_2016258664336"><path class="ifil1" d="M601157 535173c-14639-11560-30303-21935-45717-32536-30735-21161-58825-22801-81764 11240-12882 19107-30895 19951-49752 11562-51963-23100-92094-58692-115579-110473-10397-22914-10260-43436 14069-59646 12882-8575 25856-18697 24807-37441-1345-24419-61814-106003-85685-114598-9874-3558-19724-3330-29780-22-55976 18446-79165 63591-56957 117037 66237 159448 182842 270466 343317 338208 9143 3854 19311 5405 24465 6795 36526 365 79347-34156 91705-68402 11925-32925-13247-46013-33129-61724zM421212 219652c117334 17695 171441 72393 186374 188247 1392 10693-2690 26813 12884 27109 16280 298 12358-15549 12494-26267 1369-109103-95673-210270-208379-213987-8504 1208-26107-5747-27201 12928-706 12586 14091 10510 23828 11970z"/><path class="ifil1" d="M444148 251413c-11286-1322-26174-6543-28821 8803-2757 16120 13841 14479 24512 16826 72463 15869 97703 41726 109628 112205 1733 10283-1710 26267 16098 23621 13202-1961 8436-15687 9531-23690 593-67650-58532-129235-130948-137765z"/><path class="ifil1" d="M450807 306752c-7525 183-14935 982-17695 8870-4149 11788 4583 14615 13498 16008 29733 4672 45375 21864 48340 50913 798 7889 5905 14275 13680 13385 10761-1254 11743-10648 11424-19587 524-32651-37120-70387-69247-69589z"/><path class="ifil2" d="M591740 545634c-14640-11560-30304-21935-45717-32536-30735-21161-58825-22801-81764 11240-12882 19107-30895 19951-49752 11562-51963-23100-92094-58692-115579-110473-10397-22914-10260-43436 14069-59646 12882-8575 25856-18697 24807-37441-1345-24419-61815-106003-85685-114597-9875-3559-19724-3331-29781-23-55975 18446-79164 63591-56957 117037 66238 159448 182843 270466 343318 338208 9143 3854 19311 5405 24464 6795 36527 365 79348-34156 91706-68402 11925-32925-13247-46013-33129-61724zM411794 230113c117335 17695 171441 72393 186375 188247 1392 10693-2690 26813 12884 27109 16280 298 12358-15549 12494-26267 1369-109103-95673-210270-208379-213986-8505 1207-26107-5747-27201 12927-707 12586 14091 10510 23827 11970z"/><path class="ifil2" d="M434731 261874c-11287-1322-26174-6543-28821 8803-2758 16120 13841 14479 24511 16826 72463 15869 97704 41726 109629 112205 1733 10283-1711 26267 16097 23621 13203-1961 8437-15687 9531-23690 594-67650-58531-129235-130947-137765z"/><path class="ifil2" d="M441390 317213c-7525 183-14935 982-17695 8870-4150 11788 4583 14615 13498 16008 29733 4672 45374 21864 48339 50913 799 7889 5905 14275 13681 13385 10761-1254 11743-10648 11424-19587 524-32651-37120-70387-69247-69589z"/></g></g></svg></svg>